<svg fill="none" height="64" viewBox="0 0 64 64" width="64" xmlns="http://www.w3.org/2000/svg"><g fill="rgb(0,0,0)"><path clip-rule="evenodd" d="m42 2v10c0 4.4183 3.5817 8 8 8h11.9769c.0154.2013.0231.4039.0231.6073v25.3927c0 8.8366-7.1634 16-16 16h-28c-8.83656 0-16-7.1634-16-16v-28c0-8.83656 7.16344-16 16-16zm1 30c0 1.1046-.8954 2-2 2h-7v7c0 1.1046-.8954 2-2 2s-2-.8954-2-2v-7h-7c-1.1046 0-2-.8954-2-2s.8954-2 2-2h7v-7c0-1.1046.8954-2 2-2s2 .8954 2 2v7h7c1.1046 0 2 .8954 2 2z" fill-rule="evenodd"/><path d="m46 2.74211v9.25789c0 2.2091 1.7909 4 4 4h10.5401c-.3144-.4463-.676-.8626-1.0816-1.2411l-11.3649-10.60734c-.6243-.58268-1.332-1.05637-2.0936-1.40945z"/></g></svg>