<svg xmlns="http://www.w3.org/2000/svg" version="1.1" xmlns:xlink="http://www.w3.org/1999/xlink" width="512" height="512" x="0" y="0" viewBox="0 0 512 512" style="enable-background:new 0 0 512 512" xml:space="preserve" class=""><g><path d="M467 0H45C20.187 0 0 20.187 0 45v75h512V45c0-24.813-20.187-45-45-45zM96 75H76c-8.284 0-15-6.716-15-15s6.716-15 15-15h20c8.284 0 15 6.716 15 15s-6.716 15-15 15zm80 0h-20c-8.284 0-15-6.716-15-15s6.716-15 15-15h20c8.284 0 15 6.716 15 15s-6.716 15-15 15zm80 0h-20c-8.284 0-15-6.716-15-15s6.716-15 15-15h20c8.284 0 15 6.716 15 15s-6.716 15-15 15zM112.429 353.962c0-9.328-7.589-16.917-16.917-16.917 0 0-21.412.021-24.12.032v33.878c8.416-.034 19.735-.076 24.12-.076 9.328 0 16.917-7.589 16.917-16.917zM103.449 304.008c0-7.174-5.836-13.01-13.01-13.01H71.392v26.047s16.909-.027 19.048-.027c7.173-.001 13.009-5.837 13.009-13.01z" fill="#374856" opacity="1" data-original="#000000" class=""></path><circle cx="267.446" cy="330.997" r="40" fill="#374856" opacity="1" data-original="#000000" class=""></circle><path d="M0 467c0 24.813 20.187 45 45 45h422c24.813 0 45-20.187 45-45V150H0zm407.446-196.003c12.021 0 23.624 3.545 33.553 10.252 4.576 3.092 5.78 9.308 2.688 13.884-3.091 4.577-9.31 5.779-13.884 2.689-6.61-4.465-14.341-6.826-22.357-6.826-22.056 0-40 17.944-40 40s17.944 40 40 40c20.124 0 29.573-14.565 32.298-30h-19.051c-5.522 0-10-4.477-10-10s4.478-10 10-10h29.915c5.522 0 10 4.477 10 10 0 35.327-21.861 60-53.162 60-33.084 0-60-26.916-60-60s26.916-59.999 60-59.999zm-140 0c33.084 0 60 26.916 60 60s-26.916 60-60 60-60-26.916-60-60 26.916-60 60-60zm-115.017 10c0-5.523 4.478-10 10-10s10 4.477 10 10v90a5131.81 5131.81 0 0 0 24.962-.084h.057c5.497 0 9.968 4.44 9.999 9.944.03 5.522-4.421 10.024-9.944 10.056a4682.75 4682.75 0 0 1-24.424.089c-10.979 0-11.626-.111-12.339-.233a10 10 0 0 1-8.311-9.856zm-101.037 0c0-5.523 4.478-10 10-10H90.44c18.201 0 33.01 14.808 33.01 33.01a32.84 32.84 0 0 1-6.638 19.829c9.44 6.694 15.618 17.698 15.618 30.125 0 20.356-16.561 36.917-36.917 36.917-7.266 0-33.809.117-34.076.119h-.044a10 10 0 0 1-10-10v-100z" fill="#374856" opacity="1" data-original="#000000" class=""></path></g></svg>