<svg width="338" height="312" viewBox="0 0 338 312" xmlns="http://www.w3.org/2000/svg">
  <rect width="338" height="312" fill="white"/>
  <path d="M224.68 55.69h-28.7c-12.41 0-14.27 6.17-14.27 12.29v30.36h41.96c0.58 0 1.17 0.58 1.17 1.17v44.3c0 0.58-0.58 1.17-1.17 1.17h-41.96v78.24h53.82c12.89 0 19.67-7.01 19.67-19.28v-140.2c0-11.73-8.64-19.24-19.67-19.24zM121.62 55.69H61.71c-12.89 0-19.67 7.01-19.67 19.24v140.2c0 11.73 8.64 19.28 19.67 19.28h80.31c13.04 0 22.48-10.22 22.48-22.79V78.48c0-12.56-9.45-22.79-22.48-22.79zm0 190.69H61.71V78.48h59.91v167.9z" fill="black"/>
</svg>