<?xml version="1.0" encoding="UTF-8"?>
<!-- Generator: Adobe Illustrator 26.0.3, SVG Export Plug-In . SVG Version: 6.00 Build 0)  -->
<svg xmlns="http://www.w3.org/2000/svg" xmlns:xlink="http://www.w3.org/1999/xlink" version="1.1" id="Capa_1" x="0px" y="0px" viewBox="0 0 512.001 512.001" style="enable-background:new 0 0 512.001 512.001;" xml:space="preserve" width="512" height="512">
<g id="Bookmark_1_">
	<path d="M422.103,512c-2.338,0-4.66-0.744-6.601-2.2L256,390.174L96.498,509.8c-3.333,2.502-7.793,2.902-11.519,1.039   c-3.727-1.863-6.081-5.673-6.081-9.839V11c0-6.075,4.925-11,11-11h332.204c6.075,0,11,4.925,11,11v490   c0,4.166-2.353,7.976-6.081,9.839C425.466,511.617,423.78,512,422.103,512z M256,365.424c2.322,0,4.645,0.733,6.6,2.2L411.102,479   V22H100.898v457L249.4,367.624C251.355,366.157,253.678,365.424,256,365.424z"/>
	<path style="fill:#33CCCC;" d="M304.816,288.512c-1.732,0-3.471-0.408-5.067-1.237L256,264.562l-43.748,22.712   c-3.696,1.921-8.162,1.586-11.534-0.863c-3.371-2.449-5.068-6.593-4.386-10.703l8.082-48.625l-35.118-34.589   c-2.969-2.924-4.03-7.273-2.743-11.236c1.288-3.962,4.704-6.857,8.823-7.478l48.742-7.342l22.043-44.087   c1.863-3.727,5.672-6.081,9.839-6.081c4.166,0,7.976,2.354,9.839,6.081l22.044,44.087l48.742,7.342   c4.119,0.62,7.535,3.516,8.823,7.478c1.287,3.963,0.226,8.312-2.743,11.236l-35.118,34.589l8.082,48.625   c0.683,4.11-1.015,8.254-4.386,10.703C309.367,287.803,307.098,288.512,304.816,288.512z M256,241.169   c1.74,0,3.48,0.412,5.068,1.237l29.291,15.206l-5.411-32.556c-0.587-3.532,0.582-7.129,3.133-9.641l23.512-23.158l-32.634-4.915   c-3.54-0.533-6.599-2.756-8.2-5.958L256,151.868l-14.758,29.517c-1.602,3.202-4.66,5.425-8.2,5.958l-32.634,4.915l23.512,23.158   c2.551,2.512,3.72,6.108,3.133,9.641l-5.411,32.556l29.29-15.206C252.52,241.581,254.26,241.169,256,241.169z"/>
</g>















</svg>
