<?xml version="1.0" encoding="UTF-8"?>
<!-- Generator: Adobe Illustrator 24.2.3, SVG Export Plug-In . SVG Version: 6.00 Build 0)  -->
<svg xmlns="http://www.w3.org/2000/svg" xmlns:xlink="http://www.w3.org/1999/xlink" version="1.1" id="Capa_1" x="0px" y="0px" viewBox="0 0 512 512" style="enable-background:new 0 0 512 512;" xml:space="preserve" width="512" height="512">
<g>
	<rect x="85.002" y="41.685" width="158.586" height="22"/>
	<path style="fill:#33CCCC;" d="M74.002,96.233c-6.075,0-11-4.925-11-11v-72.72c0-6.075,4.925-11,11-11s11,4.925,11,11v72.72   C85.002,91.309,80.077,96.233,74.002,96.233z"/>
	<path style="fill:#33CCCC;" d="M254.588,96.233c-6.075,0-11-4.925-11-11v-72.72c0-6.075,4.925-11,11-11s11,4.925,11,11v72.72   C265.588,91.309,260.663,96.233,254.588,96.233z"/>
	<path style="fill:#33CCCC;" d="M436.681,95.864c-6.075,0-11-4.925-11-11V12.146c0-6.075,4.925-11,11-11s11,4.925,11,11v72.719   C447.681,90.939,442.756,95.864,436.681,95.864z"/>
	<g>
		<path d="M501,41.685h-53.319v22H490v67.979H22V63.685h41.002v-22H11c-6.075,0-11,4.925-11,11v447.17c0,6.075,4.925,11,11,11h490    c6.075,0,11-4.925,11-11V52.685C512,46.609,507.075,41.685,501,41.685z M490,488.854H22V153.663h468V488.854z"/>
		<rect x="265.588" y="41.685" width="160.093" height="22"/>
	</g>
	<path d="M417.285,208.978H93.173c-6.075,0-11,4.925-11,11v198.638c0,6.075,4.925,11,11,11h324.111c6.075,0,11-4.925,11-11V219.978   C428.285,213.902,423.36,208.978,417.285,208.978z M104.173,297.19h59.028v44.212h-59.028V297.19z M185.201,297.19h59.028v44.212   h-59.028V297.19z M244.229,275.19h-59.028v-44.213h59.028V275.19z M266.229,230.978h59.028v44.213h-59.028V230.978z    M244.229,363.402v44.213h-59.028v-44.213H244.229z M266.229,363.402h59.028v44.213h-59.028V363.402z M266.229,341.402V297.19   h59.028v44.212H266.229z M347.257,297.19h59.028v44.212h-59.028V297.19z M406.285,275.19h-59.028v-44.213h59.028V275.19z    M163.201,230.978v44.213h-59.028v-44.213H163.201z M104.173,363.402h59.028v44.213h-59.028V363.402z M347.257,407.615v-44.213   h59.028v44.213H347.257z"/>
</g>















</svg>
