<?xml version="1.0" encoding="UTF-8"?>
<!-- Generator: Adobe Illustrator 26.0.3, SVG Export Plug-In . SVG Version: 6.00 Build 0)  -->
<svg xmlns="http://www.w3.org/2000/svg" xmlns:xlink="http://www.w3.org/1999/xlink" version="1.1" id="Capa_1" x="0px" y="0px" viewBox="0 0 512 512" style="enable-background:new 0 0 512 512;" xml:space="preserve" width="512" height="512">
<g id="Chat_6_">
	<path style="fill:#33CCCC;" d="M463.63,345.899c-2.862,0-5.676-1.118-7.78-3.222l-79.829-79.829h-36.969v-22h41.525   c2.917,0,5.715,1.159,7.778,3.222l64.272,64.273v-56.495c0-6.075,4.925-11,11-11H490V22H183.949v146.797h-22V11   c0-6.075,4.925-11,11-11H501c6.075,0,11,4.925,11,11v240.848c0,6.075-4.925,11-11,11h-26.372v72.051c0,4.449-2.68,8.46-6.79,10.163   C466.477,345.625,465.047,345.898,463.63,345.899z"/>
	<path style="fill:#33CCCC;" d="M172.976,305.448c-6.075,0-11-4.925-11-11c0-6.075,4.925-11.019,11-11.019s11,4.906,11,10.982v0.037   C183.976,300.523,179.051,305.448,172.976,305.448z"/>
	<path style="fill:#33CCCC;" d="M256.027,305.448c-6.075,0-11-4.925-11-11c0-6.075,4.925-11.019,11-11.019   c6.075,0,11,4.906,11,10.982v0.037C267.027,300.523,262.102,305.448,256.027,305.448z"/>
	<path style="fill:#33CCCC;" d="M89.925,305.448c-6.075,0-11-4.925-11-11c0-6.075,4.925-11.019,11-11.019   c6.075,0,11,4.906,11,10.982v0.037C100.925,300.523,96,305.448,89.925,305.448z"/>
	<path d="M48.37,512c-1.417,0-2.846-0.274-4.207-0.838c-4.11-1.703-6.79-5.713-6.79-10.163v-72.051H11c-6.075,0-11-4.925-11-11   V168.797c0-6.075,4.925-11,11-11h328.052c6.075,0,11,4.925,11,11v249.152c0,6.075-4.925,11-11,11H135.981l-79.829,79.829   C54.047,510.882,51.234,512,48.37,512z M22,406.949h26.373c6.075,0,11,4.925,11,11v56.495l64.272-64.273   c2.063-2.062,4.861-3.222,7.778-3.222h196.628V179.797H22V406.949z"/>
</g>















</svg>
