<?xml version="1.0" encoding="UTF-8"?>
<!-- Generator: Adobe Illustrator 24.2.3, SVG Export Plug-In . SVG Version: 6.00 Build 0)  -->
<svg xmlns="http://www.w3.org/2000/svg" xmlns:xlink="http://www.w3.org/1999/xlink" version="1.1" id="Capa_1" x="0px" y="0px" viewBox="0 0 512 512" style="enable-background:new 0 0 512 512;" xml:space="preserve" width="512" height="512">
<g>
	<g>
		<path d="M256,0.662c-141.159,0-256,114.841-256,256c14.062,339.619,497.99,339.52,512-0.002C512,115.503,397.159,0.662,256,0.662z     M256,490.662c-129.028,0-234-104.972-234-234c12.854-310.433,455.194-310.343,468,0.002C490,385.69,385.028,490.662,256,490.662z    "/>
		<path d="M256,65.995c-105.134,0-190.667,85.533-190.667,190.667c10.474,252.946,370.898,252.872,381.333-0.001    C446.667,151.528,361.134,65.995,256,65.995z M256,425.329c-93.003,0-168.667-75.664-168.667-168.667    c9.265-223.76,328.102-223.695,337.333,0.001C424.667,349.665,349.003,425.329,256,425.329z"/>
	</g>
	<g>
		<path style="fill:#33CCCC;" d="M337.667,267.662H256c-6.075,0-11-4.925-11-11V142.329c0.566-14.562,21.411-14.615,22,0    c0,0,0,103.333,0,103.333h70.667c6.075,0,11,4.925,11,11S343.742,267.662,337.667,267.662z"/>
	</g>
</g>















</svg>
