<svg xmlns="http://www.w3.org/2000/svg" version="1.1" xmlns:xlink="http://www.w3.org/1999/xlink" width="512" height="512" x="0" y="0" viewBox="0 0 512 512" style="enable-background:new 0 0 512 512" xml:space="preserve" class=""><g><path d="M9.562 365.353c0 20.414 16.59 37.02 36.983 37.02h60.456c3.162 0 5.725-2.562 5.725-5.725s-2.562-5.725-5.725-5.725H46.545c-14.079 0-25.533-11.47-25.533-25.57V113.35h469.976v252.004c0 14.1-11.454 25.57-25.533 25.57H392.9a5.724 5.724 0 0 0-5.725 5.725 5.724 5.724 0 0 0 5.725 5.725h72.555c20.393 0 36.983-16.606 36.983-37.02V107.791c.002-.057.017-.109.017-.167V43.017c0-19.126-14.589-34.909-33.223-36.806-.518-.053-1.052-.049-1.576-.08-.731-.043-1.457-.111-2.199-.111H46.543c-.742 0-1.467.068-2.199.111-.524.031-1.058.027-1.576.08C24.134 8.107 9.545 23.89 9.545 43.017v64.608c0 .057.015.11.017.167zM465.455 17.469c14.079 0 25.533 11.455 25.533 25.535V101.9H21.012V43.003c0-14.079 11.454-25.535 25.533-25.535h418.91z" fill="#374856" opacity="1" data-original="#000000" class=""></path><path d="M70.341 84.224c13.531 0 24.54-11.008 24.54-24.54s-11.008-24.54-24.54-24.54-24.54 11.008-24.54 24.54 11.008 24.54 24.54 24.54zm0-37.629c7.218 0 13.09 5.872 13.09 13.09s-5.872 13.09-13.09 13.09-13.09-5.872-13.09-13.09 5.872-13.09 13.09-13.09zM139.932 84.224c13.531 0 24.54-11.008 24.54-24.54s-11.008-24.54-24.54-24.54-24.541 11.008-24.541 24.54 11.01 24.54 24.541 24.54zm0-37.629c7.218 0 13.09 5.872 13.09 13.09s-5.872 13.09-13.09 13.09c-7.219 0-13.092-5.872-13.092-13.09s5.873-13.09 13.092-13.09zM209.522 84.224c13.531 0 24.54-11.008 24.54-24.54s-11.008-24.54-24.54-24.54c-13.531 0-24.54 11.008-24.54 24.54s11.008 24.54 24.54 24.54zm0-37.629c7.218 0 13.09 5.872 13.09 13.09s-5.872 13.09-13.09 13.09-13.09-5.872-13.09-13.09 5.872-13.09 13.09-13.09zM353.039 79.285h107.306c10.807 0 19.599-8.792 19.599-19.601 0-10.807-8.792-19.599-19.599-19.599H353.039c-10.807 0-19.599 8.792-19.599 19.599 0 10.809 8.792 19.601 19.599 19.601zm0-27.75h107.306c4.493 0 8.149 3.656 8.149 8.149 0 4.495-3.656 8.151-8.149 8.151H353.039c-4.493 0-8.149-3.656-8.149-8.151 0-4.493 3.656-8.149 8.149-8.149zM398.935 306.945h-16.259a135.021 135.021 0 0 0-15.724-37.899l11.488-11.526c3.282-3.282 5.076-7.633 5.076-12.251s-1.794-8.969-5.076-12.213l-21.831-21.869c-6.717-6.717-17.709-6.717-24.464 0l-11.526 11.526a134.775 134.775 0 0 0-37.937-15.724V190.73c0-9.541-7.748-17.327-17.289-17.327h-30.876c-9.541 0-17.289 7.786-17.289 17.327v16.259a134.775 134.775 0 0 0-37.937 15.724l-11.526-11.526c-6.755-6.717-17.747-6.717-24.464 0l-21.831 21.869c-6.755 6.717-6.755 17.709 0 24.465l11.488 11.526a135.021 135.021 0 0 0-15.724 37.899h-16.259c-9.541 0-17.289 7.786-17.289 17.328v30.876c0 9.542 7.748 17.289 17.289 17.289h16.259a134.787 134.787 0 0 0 15.724 37.937l-11.488 11.526c-6.755 6.755-6.755 17.709 0 24.465l21.831 21.831c6.717 6.755 17.709 6.755 24.464 0l11.526-11.488a134.775 134.775 0 0 0 37.937 15.724v16.259c0 9.542 7.748 17.289 17.289 17.289h30.876c9.542 0 17.289-7.748 17.289-17.289v-16.259a134.775 134.775 0 0 0 37.937-15.724l11.526 11.488c6.755 6.755 17.747 6.755 24.464 0l21.831-21.831c3.282-3.244 5.076-7.595 5.076-12.213 0-4.656-1.794-8.969-5.076-12.251l-11.488-11.526a134.787 134.787 0 0 0 15.724-37.937h16.259c9.542 0 17.289-7.748 17.289-17.289v-30.876c0-9.544-7.748-17.33-17.289-17.33zm5.839 48.204a5.815 5.815 0 0 1-5.839 5.84h-20.801c-2.71 0-5.076 1.908-5.611 4.58-3.206 15.152-9.121 29.426-17.671 42.517-1.45 2.252-1.145 5.267.763 7.175l14.732 14.732a5.85 5.85 0 0 1 0 8.282l-21.831 21.831a5.85 5.85 0 0 1-8.282 0l-14.732-14.732c-1.908-1.908-4.924-2.252-7.175-.763-13.053 8.549-27.365 14.465-42.517 17.671a5.678 5.678 0 0 0-4.58 5.572v20.838a5.815 5.815 0 0 1-5.839 5.84h-30.876a5.815 5.815 0 0 1-5.839-5.84v-20.838a5.678 5.678 0 0 0-4.58-5.572c-15.152-3.206-29.426-9.122-42.517-17.671a5.75 5.75 0 0 0-7.176.763l-14.732 14.732a5.85 5.85 0 0 1-8.282 0l-21.831-21.831a5.85 5.85 0 0 1 0-8.282l14.732-14.732c1.908-1.908 2.214-4.923.763-7.175-8.549-13.091-14.503-27.365-17.671-42.517-.534-2.672-2.9-4.58-5.61-4.58h-20.801a5.815 5.815 0 0 1-5.839-5.84v-30.876c0-3.244 2.595-5.878 5.839-5.878h20.801c2.71 0 5.076-1.87 5.61-4.542 3.206-15.152 9.122-29.464 17.671-42.517 1.45-2.252 1.145-5.267-.763-7.175l-14.732-14.732a5.85 5.85 0 0 1 0-8.282l21.831-21.831a5.85 5.85 0 0 1 8.282 0l14.732 14.732c1.908 1.908 4.924 2.214 7.175.763 13.053-8.549 27.365-14.503 42.517-17.671 2.672-.534 4.58-2.901 4.58-5.611v-20.8c0-3.244 2.595-5.878 5.839-5.878h30.876c3.244 0 5.839 2.633 5.839 5.878v20.8c0 2.71 1.908 5.076 4.58 5.611 15.152 3.206 29.426 9.122 42.517 17.671 2.252 1.45 5.267 1.145 7.175-.763l14.732-14.732a5.85 5.85 0 0 1 8.282 0l21.831 21.831a5.85 5.85 0 0 1 0 8.282l-14.732 14.732c-1.908 1.908-2.252 4.923-.763 7.175 8.549 13.053 14.465 27.365 17.671 42.517.534 2.672 2.901 4.542 5.572 4.542h20.839c3.244 0 5.839 2.633 5.839 5.878v30.876z" fill="#374856" opacity="1" data-original="#000000" class=""></path><path d="M334.549 339.692c0 46.677-37.937 84.614-84.614 84.614-46.639 0-84.576-37.937-84.576-84.614 0-46.639 37.937-84.614 84.576-84.614 46.677 0 84.614 37.975 84.614 84.614z" fill="#374856" opacity="1" data-original="#000000" class=""></path></g></svg>