<svg xmlns="http://www.w3.org/2000/svg" version="1.1" xmlns:xlink="http://www.w3.org/1999/xlink" width="512" height="512" x="0" y="0" viewBox="0 0 32 32" style="enable-background:new 0 0 512 512" xml:space="preserve" class=""><g><path d="M27 9h-2V6a3 3 0 0 0-3-3H5a3 3 0 0 0-3 3v20a3 3 0 0 0 3 3h21.5a3.5 3.5 0 0 0 3.5-3.5V12a3 3 0 0 0-3-3zm-7 13H7a1 1 0 0 1 0-2h13a1 1 0 0 1 0 2zm0-5H7a1 1 0 0 1 0-2h13a1 1 0 0 1 0 2zm0-5H10a1 1 0 0 1 0-2h10a1 1 0 0 1 0 2zm8 13.5a1.5 1.5 0 0 1-3 0V11h2a1 1 0 0 1 1 1z" fill="#374856" opacity="1" data-original="#000000" class=""></path></g></svg>