<?xml version="1.0" encoding="UTF-8"?>
<!-- Generator: Adobe Illustrator 24.2.3, SVG Export Plug-In . SVG Version: 6.00 Build 0)  -->
<svg xmlns="http://www.w3.org/2000/svg" xmlns:xlink="http://www.w3.org/1999/xlink" version="1.1" id="Capa_1" x="0px" y="0px" viewBox="0 0 512 512" style="enable-background:new 0 0 512 512;" xml:space="preserve" width="512" height="512">
<g>
	<path d="M501,138.257H391.024V11c0-6.075-4.925-11-11-11H11C4.925,0,0,4.925,0,11v287.697c0,6.075,4.925,11,11,11h129.215v64.41   h-26.684c-6.075,0-11,4.925-11,11s4.925,11,11,11h163.037c6.075,0,11-4.925,11-11s-4.925-11-11-11h-25.76v-64.41h66.369V501   c0,6.075,4.925,11,11,11H501c6.075,0,11-4.925,11-11V149.257C512,143.182,507.075,138.257,501,138.257z M339.178,221.254H490   v38.996H339.178V221.254z M490,199.254H339.178v-38.997H490V199.254z M369.024,22v116.257h-40.846c-6.075,0-11,4.925-11,11v77.443   H22V22H369.024z M228.809,374.107h-66.594v-64.41h66.594V374.107z M22,287.697v-38.997h295.178v38.997H22z M339.178,490V282.25H490   V490H339.178z"/>
	<g>
		<path style="fill:#33CCCC;" d="M422.69,451.003h-16.202c-6.075,0-11-4.925-11-11s4.925-11,11-11h16.202c6.075,0,11,4.925,11,11    S428.765,451.003,422.69,451.003z"/>
	</g>
</g>















</svg>
