<?xml version="1.0" encoding="UTF-8"?>
<!-- Generator: Adobe Illustrator 26.0.3, SVG Export Plug-In . SVG Version: 6.00 Build 0)  -->
<svg xmlns="http://www.w3.org/2000/svg" xmlns:xlink="http://www.w3.org/1999/xlink" version="1.1" id="Capa_1" x="0px" y="0px" viewBox="0 0 511.942 511.942" style="enable-background:new 0 0 511.942 511.942;" xml:space="preserve" width="512" height="512">
<g>
	<path d="M462.345,118.386c20.325-28.258-0.49-68.798-35.558-68.6c-35.065-0.199-55.884,40.349-35.556,68.601   c-18.932,7.457-32.372,25.914-32.372,47.461v33.194c0,6.075,4.925,11,11,11h113.858c6.075,0,11-4.925,11-11v-33.194   C494.718,144.299,481.277,125.843,462.345,118.386z M426.788,71.785c11.872,0,21.531,9.659,21.531,21.531   c-1.183,28.564-41.884,28.556-43.063,0C405.257,81.444,414.916,71.785,426.788,71.785z M472.718,188.042h-91.858v-22.194   c0-15.99,13.01-29,29-29h33.858c15.99,0,29,13.01,29,29V188.042z"/>
	<path d="M119.752,118.386c20.325-28.258-0.49-68.798-35.557-68.601c-35.064-0.199-55.884,40.349-35.557,68.6   c-18.932,7.457-32.373,25.914-32.373,47.462v33.194c0,6.075,4.925,11,11,11h113.858c6.075,0,11-4.925,11-11v-33.194   C152.124,144.3,138.684,125.843,119.752,118.386z M84.195,71.785c11.872,0,21.531,9.659,21.531,21.531   c-1.183,28.564-41.884,28.556-43.063,0C62.664,81.444,72.323,71.785,84.195,71.785z M130.124,188.042H38.266v-22.194   c0-15.99,13.01-29,29-29h33.858c15.99,0,29,13.01,29,29V188.042z"/>
	<path d="M291.552,370.5c20.334-28.255-0.486-68.796-35.552-68.598c-35.063-0.199-55.888,40.35-35.551,68.598   c-18.935,7.456-32.378,25.914-32.378,47.464v33.194c0,6.075,4.925,11,11,11H312.93c6.075,0,11-4.925,11-11v-33.194   C323.93,396.413,310.487,377.955,291.552,370.5z M256,323.901c11.872,0,21.531,9.659,21.531,21.531   c-1.183,28.564-41.884,28.556-43.063,0C234.469,333.56,244.128,323.901,256,323.901z M301.93,440.158H210.07v-22.194   c0-15.99,13.01-29,29-29h33.859c15.99,0,29,13.01,29,29V440.158z"/>
</g>
<g>
	<path style="fill:#79CACA;" d="M291.557,118.386c20.325-28.258-0.49-68.798-35.558-68.6c-35.064-0.199-55.884,40.349-35.557,68.6   c-18.932,7.457-32.373,25.914-32.373,47.462v33.194c0,6.075,4.925,11,11,11H312.93c6.075,0,11-4.925,11-11v-33.194   C323.93,144.299,310.489,125.843,291.557,118.386z M256,71.785c11.872,0,21.531,9.659,21.531,21.531   c-1.183,28.564-41.884,28.556-43.063,0C234.469,81.444,244.128,71.785,256,71.785z M301.93,188.042H210.07v-22.194   c0-15.99,13.01-29,29-29h33.859c15.99,0,29,13.01,29,29V188.042z"/>
	<path style="fill:#79CACA;" d="M462.34,370.5c20.334-28.255-0.486-68.796-35.552-68.598c-35.063-0.199-55.888,40.35-35.551,68.599   c-18.935,7.456-32.377,25.914-32.377,47.463v33.194c0,6.075,4.925,11,11,11h113.858c6.075,0,11-4.925,11-11v-33.194   C494.718,396.413,481.275,377.955,462.34,370.5z M426.788,323.901c11.872,0,21.531,9.659,21.531,21.531   c-1.183,28.564-41.884,28.556-43.063,0C405.257,333.56,414.916,323.901,426.788,323.901z M472.718,440.158h-91.858v-22.194   c0-15.99,13.01-29,29-29h33.858c15.99,0,29,13.01,29,29V440.158z"/>
	<path style="fill:#79CACA;" d="M119.747,370.5c20.334-28.256-0.486-68.796-35.552-68.599c-35.063-0.199-55.888,40.35-35.551,68.598   c-18.935,7.456-32.378,25.914-32.378,47.464v33.194c0,6.075,4.925,11,11,11h113.858c6.075,0,11-4.925,11-11v-33.194   C152.124,396.414,138.681,377.956,119.747,370.5z M84.195,323.901c11.872,0,21.531,9.659,21.531,21.531   c-1.183,28.564-41.884,28.556-43.063,0C62.664,333.56,72.323,323.901,84.195,323.901z M130.124,440.158H38.266v-22.194   c0-15.99,13.01-29,29-29h33.858c15.99,0,29,13.01,29,29V440.158z"/>
</g>
<path d="M501,266.971H11c-6.075,0-11-4.925-11-11s4.925-11,11-11h490C515.433,245.483,515.746,266.318,501,266.971z"/>















</svg>
