<?xml version="1.0" encoding="UTF-8"?>
<!-- Generator: Adobe Illustrator 26.0.3, SVG Export Plug-In . SVG Version: 6.00 Build 0)  -->
<svg xmlns="http://www.w3.org/2000/svg" xmlns:xlink="http://www.w3.org/1999/xlink" version="1.1" id="Capa_1" x="0px" y="0px" viewBox="0 0 512.004 512.004" style="enable-background:new 0 0 512.004 512.004;" xml:space="preserve" width="512" height="512">
<g>
	<g>
		<g>
			<path d="M490.483,337.669c-13.273-7.104-29.301-6.33-41.826,2.022l-79.119,52.746c0.084-1.077,0.14-2.162,0.14-3.26     c0-22.882-18.616-41.498-41.498-41.498h-77.662l-11.08-8.31c-19.078-14.309-42.717-22.189-66.564-22.189     c-20.104,0-39.841,5.467-57.079,15.81l-27.093,16.255c-3.313,1.988-5.341,5.569-5.341,9.433V480.67c0,6.075,4.925,11,11,11     h142.324h113.105c14.714,0,28.885-4.427,40.98-12.802l103.679-71.777c10.99-7.609,17.552-20.132,17.552-33.499     C512.002,358.537,503.757,344.772,490.483,337.669z M481.927,389.003L378.248,460.78c-8.399,5.816-18.239,8.89-28.457,8.89     H236.687H105.363V364.906l21.753-13.051c13.819-8.292,29.643-12.675,45.76-12.675c19.118,0,38.07,6.317,53.364,17.789     l14.013,10.51c1.904,1.428,4.22,2.2,6.6,2.2h81.328c10.751,0,19.498,8.747,19.498,19.498c0,10.751-8.747,19.498-19.498,19.498     H216.354c-6.075,0-11,4.925-11,11s4.925,11,11,11h111.826h8.02c10.233,0,20.144-3,28.658-8.677l96.002-64.001     c5.85-3.899,13.043-4.248,19.242-0.93c6.198,3.318,9.899,9.496,9.899,16.526C490.002,379.741,486.983,385.502,481.927,389.003z"/>
			<g>
				<path style="fill:#33CCCC;" d="M94.363,512.002H11.002c-6.075,0-11-4.925-11-11V318.014c0-6.075,4.925-11,11-11h83.361      c6.075,0,11,4.925,11,11v182.988C105.363,507.077,100.438,512.002,94.363,512.002z M22.002,490.002h61.361V329.014H22.002      V490.002z"/>
			</g>
		</g>
	</g>
	<path style="fill:#33CCCC;" d="M418.528,106.992c1.347-2.983,1.263-6.543-0.221-9.461L372.584,6.082   c-1.863-3.727-5.673-6.081-9.839-6.081h-71.162h-71.162h-71.162c-4.167,0-7.976,2.354-9.839,6.081L93.673,97.576   c-2.111,4.124-1.248,9.453,2.061,12.698l152.49,152.49c4.099,4.25,11.458,4.25,15.557,0l152.489-152.49   C417.211,109.322,417.979,108.209,418.528,106.992z M390.693,91.496h-74.543l-11.582-69.494h51.378L390.693,91.496z    M220.434,113.496h71.137L256.002,220.2L220.434,113.496z M282.265,22.002l11.582,69.494h-75.69l11.583-69.494H282.265z    M156.058,22.002h51.378l-11.582,69.494h-74.543L156.058,22.002z M197.243,113.496l33.588,100.763L130.068,113.496H197.243z    M281.173,214.258l33.588-100.763h67.174L281.173,214.258z"/>
	<g>
		<g>
			<path d="M465.797,83c-3.803,0-7.499-1.973-9.537-5.502c-3.037-5.261-1.234-11.989,4.026-15.026l35.216-20.332     c5.265-3.039,11.989-1.234,15.026,4.026c3.037,5.261,1.235,11.989-4.026,15.026l-35.216,20.332     C469.554,82.524,467.662,83,465.797,83z"/>
		</g>
		<g>
			<path d="M500.991,164.328c-1.866,0-3.757-0.476-5.489-1.476l-35.216-20.332c-5.261-3.038-7.063-9.765-4.026-15.026     c3.037-5.261,9.766-7.062,15.026-4.026l35.216,20.332c5.262,3.038,7.063,9.765,4.026,15.026     C508.491,162.354,504.793,164.328,500.991,164.328z"/>
		</g>
	</g>
	<g>
		<g>
			<path d="M46.208,83c-1.866,0-3.757-0.476-5.49-1.476L5.502,61.192c-5.261-3.038-7.064-9.765-4.026-15.026     c3.039-5.261,9.766-7.063,15.026-4.026l35.216,20.332c5.261,3.038,7.064,9.765,4.026,15.026C53.707,81.027,50.009,83,46.208,83z"/>
		</g>
		<g>
			<path d="M11.012,164.328c-3.802,0-7.499-1.973-9.537-5.502c-3.038-5.261-1.235-11.989,4.026-15.026l35.216-20.332     c5.26-3.037,11.988-1.235,15.026,4.026c3.038,5.261,1.235,11.989-4.026,15.026l-35.216,20.332     C14.77,163.852,12.878,164.328,11.012,164.328z"/>
		</g>
	</g>
</g>















</svg>
