<?xml version="1.0" encoding="UTF-8"?>
<!-- Generator: Adobe Illustrator 26.0.3, SVG Export Plug-In . SVG Version: 6.00 Build 0)  -->
<svg xmlns="http://www.w3.org/2000/svg" xmlns:xlink="http://www.w3.org/1999/xlink" version="1.1" id="Capa_1" x="0px" y="0px" viewBox="0 0 512 512" style="enable-background:new 0 0 512 512;" xml:space="preserve" width="512" height="512">
<g id="Bookmark_00000002371508813099837470000005156419187743538101_">
	<path style="fill:#33CCCC;" d="M407.422,500.011c-1.732,0-3.471-0.408-5.067-1.237L256,422.796l-146.354,75.978   c-3.698,1.921-8.163,1.585-11.534-0.863c-3.371-2.449-5.068-6.593-4.385-10.703l27.035-162.668L3.281,208.829   c-2.969-2.924-4.03-7.273-2.743-11.236c1.287-3.962,4.703-6.857,8.823-7.478l163.056-24.559L246.161,18.07   c1.863-3.727,5.672-6.081,9.839-6.081s7.976,2.354,9.839,6.081l73.744,147.486l163.056,24.559c4.12,0.62,7.536,3.516,8.823,7.478   c1.288,3.963,0.226,8.312-2.743,11.236l-117.48,115.71l27.035,162.668c0.683,4.11-1.015,8.254-4.385,10.703   C411.973,499.302,409.703,500.011,407.422,500.011z M256,399.402c1.74,0,3.479,0.412,5.068,1.237l131.896,68.472L368.6,322.513   c-0.587-3.532,0.581-7.129,3.132-9.641l105.875-104.279L330.659,186.46c-3.54-0.533-6.6-2.756-8.201-5.958L256,47.586   l-66.458,132.916c-1.601,3.202-4.661,5.425-8.201,5.958L34.393,208.593l105.874,104.279c2.551,2.512,3.719,6.108,3.132,9.641   l-24.365,146.599l131.896-68.472C252.521,399.815,254.26,399.402,256,399.402z"/>
</g>















</svg>
