<?xml version="1.0" encoding="UTF-8"?>
<!-- Generator: Adobe Illustrator 26.0.3, SVG Export Plug-In . SVG Version: 6.00 Build 0)  -->
<svg xmlns="http://www.w3.org/2000/svg" xmlns:xlink="http://www.w3.org/1999/xlink" version="1.1" id="Capa_1" x="0px" y="0px" viewBox="0 0 512 512" style="enable-background:new 0 0 512 512;" xml:space="preserve" width="512" height="512">
<g id="Hourglass">
	<rect x="131.424" y="120.424" style="fill:#33CCCC;" width="249.152" height="22"/>
	<path style="fill:#33CCCC;" d="M388.221,493.091L263.645,372.667c-4.086-4.076-11.204-4.075-15.29,0L123.779,493.091   c-4.368,4.222-4.486,11.186-0.264,15.554c2.158,2.233,5.032,3.355,7.91,3.355c2.753,0,5.509-1.027,7.644-3.091L256,395.875   l116.931,113.034c2.135,2.065,4.891,3.091,7.644,3.091c2.877,0,5.752-1.123,7.91-3.355   C392.708,504.277,392.59,497.313,388.221,493.091z"/>
	<path d="M422.102,490h-30.525V380.576c0-55.777-33.861-103.79-82.104-124.576c48.242-20.787,82.104-68.799,82.104-124.576V22   h30.525c6.075,0,11-4.925,11-11s-4.925-11-11-11H89.898c-6.075,0-11,4.925-11,11s4.925,11,11,11h30.526v109.424   c0,55.777,33.861,103.79,82.104,124.576c-48.243,20.787-82.104,68.799-82.104,124.576V490H89.898c-6.075,0-11,4.925-11,11   s4.925,11,11,11h332.204c6.075,0,11-4.925,11-11S428.177,490,422.102,490z M142.424,131.424V22h227.152v109.424   C369.576,194.05,318.626,245,256,245S142.424,194.05,142.424,131.424z M142.424,380.576C142.424,317.95,193.374,267,256,267   s113.576,50.95,113.576,113.576V490H142.424V380.576z"/>
</g>















</svg>
