<?xml version="1.0" encoding="UTF-8"?>
<!-- Generator: Adobe Illustrator 26.0.3, SVG Export Plug-In . SVG Version: 6.00 Build 0)  -->
<svg xmlns="http://www.w3.org/2000/svg" xmlns:xlink="http://www.w3.org/1999/xlink" version="1.1" id="Capa_1" x="0px" y="0px" viewBox="0 0 512 512" style="enable-background:new 0 0 512 512;" xml:space="preserve" width="512" height="512">
<g>
	<g id="List">
		<path style="fill:#33CCCC;" d="M501,160.257H11c-6.075,0-11-4.925-11-11c0-6.075,4.925-11,11-11h490c6.075,0,11,4.925,11,11    C512,155.333,507.075,160.257,501,160.257z"/>
		<path d="M470.502,495.734H41.498C18.616,495.734,0,477.119,0,454.236V57.764c0-22.882,18.616-41.498,41.498-41.498h429.004    c22.882,0,41.498,18.616,41.498,41.498v396.473C512,477.119,493.384,495.734,470.502,495.734z M41.498,38.266    C30.747,38.266,22,47.013,22,57.764v396.473c0,10.751,8.747,19.498,19.498,19.498h429.004c10.751,0,19.498-8.747,19.498-19.498    V57.764c0-10.751-8.747-19.498-19.498-19.498H41.498z"/>
		<path d="M440.004,99.261H254.983c-6.075,0-11-4.925-11-11s4.925-11,11-11h185.021c6.075,0,11,4.925,11,11    S446.079,99.261,440.004,99.261z"/>
		<path style="fill:#33CCCC;" d="M163.49,282.249H71.996c-6.075,0-11-4.925-11-11v-60.996c0-6.075,4.925-11,11-11h91.494    c6.075,0,11,4.925,11,11v60.996C174.49,277.324,169.565,282.249,163.49,282.249z M82.996,260.249h69.494v-38.996H82.996V260.249z"/>
		<path style="fill:#33CCCC;" d="M163.49,434.739H71.996c-6.075,0-11-4.925-11-11v-60.996c0-6.075,4.925-11,11-11h91.494    c6.075,0,11,4.925,11,11v60.996C174.49,429.814,169.565,434.739,163.49,434.739z M82.996,412.739h69.494v-38.996H82.996V412.739z"/>
		<path d="M440.004,221.253H224.485c-6.075,0-11-4.925-11-11s4.925-11,11-11h215.519c6.075,0,11,4.925,11,11    S446.079,221.253,440.004,221.253z"/>
		<path style="fill:#33CCCC;" d="M440.004,282.249H315.979c-6.075,0-11-4.925-11-11s4.925-11,11-11h124.024c6.075,0,11,4.925,11,11    S446.079,282.249,440.004,282.249z"/>
		<path d="M440.004,373.743H224.485c-6.075,0-11-4.925-11-11s4.925-11,11-11h215.519c6.075,0,11,4.925,11,11    S446.079,373.743,440.004,373.743z"/>
		<path style="fill:#33CCCC;" d="M440.004,434.739H315.979c-6.075,0-11-4.925-11-11s4.925-11,11-11h124.024c6.075,0,11,4.925,11,11    S446.079,434.739,440.004,434.739z"/>
	</g>
	<path d="M132.99,100.28c-15.8-0.306-13.414-24.566,2.151-21.79C147.88,80.72,145.919,100.581,132.99,100.28z"/>
	<path d="M72,100.28c-15.813-0.298-13.412-24.594,2.151-21.79C86.884,80.729,84.921,100.573,72,100.28z"/>
	<path d="M193.99,100.28c-15.798-0.306-13.43-24.558,2.151-21.79C208.879,80.728,206.911,100.576,193.99,100.28z"/>
</g>















</svg>
