<?xml version="1.0" encoding="UTF-8"?>
<!-- Generator: Adobe Illustrator 26.0.3, SVG Export Plug-In . SVG Version: 6.00 Build 0)  -->
<svg xmlns="http://www.w3.org/2000/svg" xmlns:xlink="http://www.w3.org/1999/xlink" version="1.1" id="Capa_1" x="0px" y="0px" viewBox="0 0 512 512" style="enable-background:new 0 0 512 512;" xml:space="preserve" width="512" height="512">
<g id="List_1_">
	<path d="M470.502,113.494H224.485c-22.882,0-41.498-18.616-41.498-41.498s18.616-41.498,41.498-41.498h246.017   c22.882,0,41.498,18.616,41.498,41.498S493.384,113.494,470.502,113.494z M224.485,52.498c-10.751,0-19.498,8.747-19.498,19.498   s8.747,19.498,19.498,19.498h246.017c10.751,0,19.498-8.747,19.498-19.498s-8.747-19.498-19.498-19.498H224.485z"/>
	<path d="M470.502,297.498H224.485c-22.882,0-41.498-18.616-41.498-41.498s18.616-41.498,41.498-41.498h246.017   C493.384,214.502,512,233.118,512,256S493.384,297.498,470.502,297.498z M224.485,236.502c-10.751,0-19.498,8.747-19.498,19.498   s8.747,19.498,19.498,19.498h246.017c10.751,0,19.498-8.747,19.498-19.498s-8.747-19.498-19.498-19.498H224.485z"/>
	<path d="M470.502,481.502H224.485c-22.882,0-41.498-18.616-41.498-41.498s18.616-41.498,41.498-41.498h246.017   c22.882,0,41.498,18.616,41.498,41.498S493.384,481.502,470.502,481.502z M224.485,420.506c-10.751,0-19.498,8.747-19.498,19.498   s8.747,19.498,19.498,19.498h246.017c10.751,0,19.498-8.747,19.498-19.498s-8.747-19.498-19.498-19.498H224.485z"/>
	<path style="fill:#33CCCC;" d="M132.992,512H11c-6.075,0-11-4.925-11-11V379.008c0-6.075,4.925-11,11-11h121.992   c6.075,0,11,4.925,11,11V501C143.992,507.075,139.067,512,132.992,512z M22,490h99.992v-99.992H22V490z"/>
	<path style="fill:#33CCCC;" d="M132.992,329.013H11c-6.075,0-11-4.925-11-11V193.987c0-6.075,4.925-11,11-11h121.992   c6.075,0,11,4.925,11,11v124.025C143.992,324.088,139.067,329.013,132.992,329.013z M22,307.013h99.992V204.987H22V307.013z"/>
	<path style="fill:#33CCCC;" d="M132.992,143.992H11c-6.075,0-11-4.925-11-11V11C0,4.925,4.925,0,11,0h121.992   c6.075,0,11,4.925,11,11v121.992C143.992,139.067,139.067,143.992,132.992,143.992z M22,121.992h99.992V22H22V121.992z"/>
</g>















</svg>
