<?xml version="1.0" encoding="UTF-8"?>
<!-- Generator: Adobe Illustrator 26.0.3, SVG Export Plug-In . SVG Version: 6.00 Build 0)  -->
<svg xmlns="http://www.w3.org/2000/svg" xmlns:xlink="http://www.w3.org/1999/xlink" version="1.1" id="Capa_1" x="0px" y="0px" viewBox="0 0 512 512" style="enable-background:new 0 0 512 512;" xml:space="preserve" width="512" height="512">
<g id="Menu">
	<path d="M210.322,221.321H11c-6.075,0-11-4.925-11-11V11C0,4.925,4.925,0,11,0h199.322c6.075,0,11,4.925,11,11v199.321   C221.322,216.396,216.397,221.321,210.322,221.321z M22,199.321h177.322V22H22V199.321z"/>
	<path style="fill:#33CCCC;" d="M501,221.321H301.677c-6.075,0-11-4.925-11-11V11c0-6.075,4.925-11,11-11H501   c6.075,0,11,4.925,11,11v199.321C512,216.396,507.075,221.321,501,221.321z M312.677,199.321H490V22H312.677V199.321z"/>
	<path style="fill:#33CCCC;" d="M210.322,512H11c-6.075,0-11-4.925-11-11V301.678c0-6.075,4.925-11,11-11h199.322   c6.075,0,11,4.925,11,11V501C221.322,507.075,216.397,512,210.322,512z M22,490h177.322V312.678H22V490z"/>
	<path d="M501,512H301.677c-6.075,0-11-4.925-11-11V301.678c0-6.075,4.925-11,11-11H501c6.075,0,11,4.925,11,11V501   C512,507.075,507.075,512,501,512z M312.677,490H490V312.678H312.677V490z"/>
</g>















</svg>
