<?xml version="1.0" encoding="UTF-8"?>
<!-- Generator: Adobe Illustrator 24.2.3, SVG Export Plug-In . SVG Version: 6.00 Build 0)  -->
<svg xmlns="http://www.w3.org/2000/svg" xmlns:xlink="http://www.w3.org/1999/xlink" version="1.1" id="Capa_1" x="0px" y="0px" viewBox="0 0 511 511" style="enable-background:new 0 0 511 511;" xml:space="preserve" width="512" height="512">
<style type="text/css">
	.st0{fill:#33CCCC;}
</style>
<g>
	<g>
		<path class="st0" d="M507.8,65.9L445.1,3.2c-4.3-4.3-11.3-4.3-15.6,0l-53.9,53.9c3.4,3.4,9.4,9.4,15.6,15.6l46.2-46.2l47.1,47.1    l-46.2,46.2c6.2,6.2,12.1,12.1,15.6,15.6l53.9-53.9c2.1-2.1,3.2-4.9,3.2-7.8S509.9,68,507.8,65.9z"/>
	</g>
	<path d="M470.2,156.3c0-2.9-1.2-5.7-3.2-7.8L362.5,44.1l-13.3-13.3c-28.4-28.4-74.5-28.4-102.9,0L124.8,152.3   c-4.3,4.3-4.3,11.3,0,15.6c4.3,4.3,11.3,4.3,15.6,0L261.9,46.3c18.8-19.6,53-19.6,71.8,0c0,0,5.5,5.5,5.5,5.5   C306.4,84.7,48.9,342.1,9.4,381.6c-1.8,1.8-3,4.3-3.2,6.9C6,388.6,0.2,499.3,0,499.4c0,0.4,0,0.8,0,1.2c0.2,3,1.6,5.9,3.8,7.8   c2.1,1.8,5,2.8,7.7,2.6l110.6-6.2c0.8-0.1,1.6-0.2,2.4-0.4C177.2,457.5,421,208.2,467,164.1C469.1,162,470.2,159.2,470.2,156.3z    M290.2,132l88.9,88.9L121.6,478.3l-88.9-88.9L290.2,132z M26.8,414.6l69.7,69.7l-73.8,4.1L26.8,414.6z M394.6,205.3l-88.9-88.9   l49-49l88.9,88.9L394.6,205.3z"/>
</g>
</svg>
