<?xml version="1.0" encoding="UTF-8"?>
<!-- Generator: Adobe Illustrator 26.0.3, SVG Export Plug-In . SVG Version: 6.00 Build 0)  -->
<svg xmlns="http://www.w3.org/2000/svg" xmlns:xlink="http://www.w3.org/1999/xlink" version="1.1" id="Capa_1" x="0px" y="0px" viewBox="0 0 512 512" style="enable-background:new 0 0 512 512;" xml:space="preserve" width="512" height="512">
<g>
	<g id="Resize_Image">
		<path style="fill:#33CCCC;" d="M501,82.996c6.075,0,11-4.925,11-11V11c0-6.075-4.925-11-11-11h-60.996c-6.075,0-11,4.925-11,11    v19.498H82.996V11c0-6.075-4.925-11-11-11H11C4.925,0,0,4.925,0,11v60.996c0,6.075,4.925,11,11,11h19.498v346.008H11    c-6.075,0-11,4.925-11,11V501c0,6.075,4.925,11,11,11h60.996c6.075,0,11-4.925,11-11v-19.498h346.008V501c0,6.075,4.925,11,11,11    H501c6.075,0,11-4.925,11-11v-60.996c0-6.075-4.925-11-11-11h-19.498V82.996H501z M451.004,22H490v38.996h-38.996V22z M22,22    h38.996v38.996H22V22z M60.996,490H22v-38.996h38.996V490z M490,490h-38.996v-38.996H490V490z M459.502,429.004h-19.498    c-6.075,0-11,4.925-11,11v19.498H82.996v-19.498c0-6.075-4.925-11-11-11H52.498V82.996h19.498c6.075,0,11-4.925,11-11V52.498    h346.008v19.498c0,6.075,4.925,11,11,11h19.498V429.004z"/>
		<path d="M409.506,123.008H102.494c-6.075,0-11,4.925-11,11v243.984c0,6.075,4.925,11,11,11h307.013c6.075,0,11-4.925,11-11    V134.008C420.506,127.933,415.582,123.008,409.506,123.008z M398.506,145.008v145.74l-43.299-42.589    c-4.306-4.236-11.221-4.206-15.492,0.063l-53.217,53.218l-83.716-83.716c-4.279-4.279-11.211-4.297-15.513-0.043l-73.775,72.965    V145.008H398.506z M113.494,366.992v-45.404l81.467-80.572l83.759,83.759c2.063,2.062,4.861,3.222,7.778,3.222    c2.918,0,5.715-1.159,7.778-3.222l53.281-53.282l50.949,50.113v45.387H113.494z"/>
	</g>
	<path d="M318.01,206c-15.805-0.28-13.396-24.603,2.151-21.78C332.9,186.43,330.936,206.325,318.01,206z"/>
</g>















</svg>
