<?xml version="1.0" encoding="UTF-8"?>
<!-- Generator: Adobe Illustrator 26.0.3, SVG Export Plug-In . SVG Version: 6.00 Build 0)  -->
<svg xmlns="http://www.w3.org/2000/svg" xmlns:xlink="http://www.w3.org/1999/xlink" version="1.1" id="Capa_1" x="0px" y="0px" viewBox="0 0 512 512" style="enable-background:new 0 0 512 512;" xml:space="preserve" width="512" height="512">
<g id="Setting">
	<g id="Setting_2_">
		<path style="fill:#33CCCC;" d="M256,350.051c-51.859,0-94.051-42.191-94.051-94.051c0-51.86,42.191-94.051,94.051-94.051    c51.86,0,94.052,42.191,94.052,94.051C350.052,307.86,307.86,350.051,256,350.051z M256,183.949    c-39.729,0-72.051,32.322-72.051,72.051s32.322,72.051,72.051,72.051c39.729,0,72.052-32.322,72.052-72.051    S295.729,183.949,256,183.949z"/>
	</g>
	<path d="M293.373,512h-74.746c-6.075,0-11-4.925-11-11v-57.778c-17.307-4.492-33.972-11.458-49.676-20.765l-40.987,40.987   c-4.297,4.296-11.26,4.296-15.557,0l-52.854-52.852c-2.062-2.063-3.222-4.861-3.222-7.778s1.159-5.715,3.222-7.778l40.987-40.986   c-9.306-15.707-16.271-32.372-20.764-49.676H11c-6.075,0-11-4.925-11-11v-74.746c0-6.075,4.925-11,11-11h57.777   c4.493-17.305,11.46-33.972,20.765-49.676l-40.988-40.986c-2.062-2.063-3.222-4.861-3.222-7.778c0-2.917,1.159-5.715,3.222-7.778   l52.854-52.854c2.062-2.062,4.861-3.222,7.778-3.222c2.917,0,5.715,1.159,7.778,3.222l40.987,40.987   c15.707-9.306,32.371-16.271,49.676-20.762V11c0-6.075,4.925-11,11-11h74.746c6.075,0,11,4.925,11,11v57.778   c17.304,4.492,33.969,11.456,49.676,20.762l40.987-40.987c4.297-4.296,11.26-4.296,15.557,0l52.854,52.854   c2.062,2.063,3.222,4.861,3.222,7.778c0,2.918-1.159,5.716-3.222,7.778l-40.989,40.986c9.306,15.705,16.272,32.371,20.765,49.676   H501c6.075,0,11,4.925,11,11v74.746c0,6.075-4.925,11-11,11h-57.777c-4.491,17.304-11.457,33.97-20.763,49.676l40.987,40.987   c2.062,2.063,3.222,4.861,3.222,7.778s-1.159,5.715-3.222,7.778l-52.854,52.852c-4.298,4.295-11.261,4.295-15.557,0l-40.987-40.987   c-15.704,9.306-32.369,16.272-49.676,20.765V501C304.373,507.075,299.448,512,293.373,512z M229.627,490h52.746v-55.464   c0-5.13,3.547-9.58,8.548-10.723l3.227-0.738c18.532-4.237,36.314-11.669,52.854-22.091l2.807-1.768   c4.349-2.739,10.011-2.102,13.642,1.529l39.365,39.365l37.298-37.296l-39.364-39.365c-3.632-3.632-4.267-9.294-1.529-13.64   l1.767-2.805c10.421-16.542,17.852-34.324,22.089-52.855l0.739-3.229c1.143-5.001,5.593-8.547,10.723-8.547H490v-52.746h-55.464   c-5.13,0-9.579-3.546-10.723-8.547l-0.738-3.227c-4.237-18.533-11.67-36.315-22.091-52.854l-1.768-2.804   c-2.74-4.347-2.105-10.011,1.527-13.644l39.368-39.365l-37.298-37.298l-39.365,39.365c-3.632,3.632-9.295,4.268-13.642,1.528   l-2.805-1.767c-16.542-10.42-34.325-17.853-52.854-22.089l-3.228-0.738c-5.001-1.144-8.548-5.593-8.548-10.723V22h-52.746v55.464   c0,5.13-3.547,9.58-8.548,10.723l-3.227,0.738c-18.53,4.236-36.313,11.668-52.855,22.089l-2.805,1.767   c-4.347,2.74-10.01,2.104-13.642-1.528l-39.365-39.365l-37.297,37.298l39.367,39.365c3.633,3.633,4.268,9.297,1.527,13.644   L111.015,165c-10.419,16.537-17.852,34.319-22.089,52.852l-0.739,3.228c-1.144,5.001-5.593,8.547-10.723,8.547H22v52.746h55.464   c5.13,0,9.579,3.546,10.723,8.546l0.738,3.227c4.237,18.532,11.669,36.314,22.09,52.856l1.768,2.804   c2.738,4.347,2.104,10.01-1.528,13.643l-39.365,39.365l37.297,37.296l39.365-39.365c3.632-3.632,9.295-4.267,13.642-1.529   l2.806,1.768c16.54,10.422,34.322,17.854,52.854,22.091l3.228,0.738c5.001,1.143,8.548,5.593,8.548,10.723V490z"/>
</g>















</svg>
