<?xml version="1.0" encoding="UTF-8"?>
<!-- Generator: Adobe Illustrator 26.4.1, SVG Export Plug-In . SVG Version: 6.00 Build 0)  -->
<svg xmlns="http://www.w3.org/2000/svg" xmlns:xlink="http://www.w3.org/1999/xlink" version="1.1" id="Capa_1" x="0px" y="0px" viewBox="0 0 512 512" style="enable-background:new 0 0 512 512;" xml:space="preserve" width="512" height="512">
<g>
	<path d="M490.381,477.204c-4.612,0-9.183-1.495-13.032-4.42h-0.001l-52.707-40.045c-2.895-2.2-6.489-3.411-10.122-3.411H61.58   C27.624,429.329,0,401.668,0,367.67V96.455c0-33.999,27.624-61.659,61.58-61.659H450.42c33.955,0,61.58,27.66,61.58,61.659v359.117   c0,8.27-4.599,15.689-12.003,19.362C496.932,476.454,493.646,477.204,490.381,477.204z M61.58,56.796   C39.755,56.796,22,74.587,22,96.455V367.67c0,21.868,17.755,39.659,39.58,39.659h352.94c8.411,0,16.732,2.803,23.431,7.893   l52.049,39.544L490,96.455c0-21.868-17.755-39.659-39.58-39.659H61.58z"/>
	<path style="fill:#33CCCC;" d="M431.392,126.887H80.608c-6.075,0-11-4.925-11-11s4.925-11,11-11h350.784c6.075,0,11,4.925,11,11   S437.467,126.887,431.392,126.887z"/>
	<path d="M166.568,360.925h-85.96c-6.075,0-11-4.925-11-11s4.925-11,11-11h85.96c6.075,0,11,4.925,11,11   S172.644,360.925,166.568,360.925z"/>
	<path d="M386.66,187.883H80.608c-6.075,0-11-4.925-11-11s4.925-11,11-11H386.66c6.075,0,11,4.925,11,11   S392.735,187.883,386.66,187.883z"/>
	<path style="fill:#33CCCC;" d="M431.388,248.61H80.604c-6.075,0-11-4.925-11-11s4.925-11,11-11h350.784c6.075,0,11,4.925,11,11   S437.463,248.61,431.388,248.61z"/>
</g>















</svg>
