<?xml version="1.0" encoding="UTF-8"?>
<!-- Generator: Adobe Illustrator 26.4.1, SVG Export Plug-In . SVG Version: 6.00 Build 0)  -->
<svg xmlns="http://www.w3.org/2000/svg" xmlns:xlink="http://www.w3.org/1999/xlink" version="1.1" id="Capa_1" x="0px" y="0px" viewBox="0 0 511.959 511.959" style="enable-background:new 0 0 511.959 511.959;" xml:space="preserve" width="512" height="512">
<g>
	<path d="M443.021,88.354c-44.477-44.8-103.618-69.473-166.528-69.473c-62.911,0-122.051,24.673-166.528,69.473   C65.51,133.133,41.027,192.663,41.027,255.98c0,37.181,8.767,74.091,25.341,107.045c-7.856,31.516-29.969,57.777-59.786,70.717   c-6.686,2.708-8.787,11.988-3.923,17.311c19.471,22.386,47.579,35.225,77.117,35.225c26.954,0,52.551-10.611,71.625-29.395   c37.457,23.707,80.499,36.194,125.091,36.194c62.91,0,122.051-24.673,166.528-69.473c44.455-44.779,68.938-104.31,68.938-167.626   S487.476,133.133,443.021,88.354z M276.493,471.078c-43.302,0-84.992-12.989-120.561-37.563l-0.001,0.002   c-4.62-3.2-10.999-2.411-14.679,1.979c-15.338,18.291-37.745,28.782-61.475,28.782c-18.348,0-35.995-6.328-50.14-17.69   c30.118-17.949,51.773-47.908,59.12-82.735c0.581-2.754,0.066-5.479-1.234-7.741C71.5,325.472,63.027,290.859,63.027,255.98   c0-118.605,95.761-215.099,213.466-215.099c117.705,0,213.466,96.493,213.466,215.099S394.199,471.078,276.493,471.078z"/>
	<path style="fill:#33CCCC;" d="M377.961,234.161H175.025c-6.075,0-11-4.925-11-11c0-6.075,4.925-11,11-11h202.936   c6.075,0,11,4.925,11,11C388.961,229.236,384.036,234.161,377.961,234.161z"/>
	<path style="fill:#33CCCC;" d="M318.947,313.893H175.025c-6.075,0-11-4.925-11-11s4.925-11,11-11h143.922c6.075,0,11,4.925,11,11   S325.022,313.893,318.947,313.893z"/>
</g>















</svg>
