<?xml version="1.0" encoding="UTF-8"?>
<!-- Generator: Adobe Illustrator 26.0.3, SVG Export Plug-In . SVG Version: 6.00 Build 0)  -->
<svg xmlns="http://www.w3.org/2000/svg" xmlns:xlink="http://www.w3.org/1999/xlink" version="1.1" id="Capa_1" x="0px" y="0px" viewBox="0 0 512 512" style="enable-background:new 0 0 512 512;" xml:space="preserve" width="512" height="512">
<g id="Trash_Bin">
	<path d="M463.627,83.051H350.051V52.525C350.051,23.562,326.488,0,297.526,0h-83.051c-28.962,0-52.525,23.562-52.525,52.525v30.525   H48.373c-6.075,0-11,4.925-11,11v83.051c0,6.075,4.925,11,11,11h30.525v271.373c0,28.963,23.563,52.525,52.526,52.525h249.152   c28.962,0,52.525-23.562,52.525-52.525V188.102h30.525c6.075,0,11-4.925,11-11V94.051   C474.627,87.976,469.702,83.051,463.627,83.051z M183.949,52.525c0-16.832,13.694-30.525,30.525-30.525h83.051   c16.832,0,30.525,13.693,30.525,30.525v30.525H183.949V52.525z M411.102,459.475c0,16.832-13.694,30.525-30.525,30.525H131.424   c-16.832,0-30.526-13.693-30.526-30.525V188.102h310.204V459.475z M452.627,166.102H59.373v-61.051h393.254V166.102z"/>
	<path style="fill:#33CCCC;" d="M172.949,428.949c-6.075,0-11-4.925-11-11V260.152c0-6.075,4.925-11,11-11s11,4.925,11,11v157.797   C183.949,424.025,179.025,428.949,172.949,428.949z"/>
	<path d="M256,428.949c-6.075,0-11-4.925-11-11V260.152c0-6.075,4.925-11,11-11c6.075,0,11,4.925,11,11v157.797   C267,424.025,262.075,428.949,256,428.949z"/>
	<path style="fill:#33CCCC;" d="M339.051,428.949c-6.075,0-11-4.925-11-11V260.152c0-6.075,4.925-11,11-11c6.075,0,11,4.925,11,11   v157.797C350.051,424.025,345.126,428.949,339.051,428.949z"/>
</g>















</svg>
